<svg xmlns="http://www.w3.org/2000/svg" viewBox="0 0 512 512">
  <path
    d="M64 464h48v48H64c-35 0-64-29-64-64V64C0 29 29 0 64 0h166q26 1 45 19l90 90q19 19 19 46v149h-48V160h-80c-18 0-32-14-32-32V48H64q-15 1-16 16v384q1 15 16 16m112-112h32a56 56 0 0 1 0 112h-16v32q-1 15-16 16c-15 1-16-7-16-16V368q1-15 16-16m32 80a24 24 0 1 0 0-48h-16v48zm96-80h32c27 0 48 22 48 48v64c0 27-21 48-48 48h-32q-15-1-16-16V368q1-15 16-16m32 128q15-1 16-16v-64q-1-15-16-16h-16v96zm80-112q1-15 16-16h48q15 1 16 16c1 15-7 16-16 16h-32v32h32q15 1 16 16c1 15-7 16-16 16h-32v48q-1 15-16 16c-15 1-16-7-16-16V368"
  />
</svg>
