<svg xmlns="http://www.w3.org/2000/svg" viewBox="0 0 640 512">
  <path
    d="M256 48q-15 1-16 16v224q1 15 16 16l69-94q6-9 19-10c13-1 15 4 19 10l17 22 56-85a24 24 0 0 1 40 0l103 157q12-3 13-16V64q-1-15-16-16zm-64 16c0-35 29-64 64-64h320c35 0 64 29 64 64v224c0 35-29 64-64 64H256c-35 0-64-29-64-64zm-56 64h24v336h192v-80h48v80h48q15-1 16-16v-64h48v64c0 35-29 64-64 64H64c-35 0-64-29-64-64V192c0-35 29-64 64-64h72m-24 48H64q-15 1-16 16v48h64zm0 288v-64H48v48q1 15 16 16zM48 352h64v-64H48zM304 80a32 32 0 1 1 0 64 32 32 0 1 1 0-64"
  />
</svg>
