<svg xmlns="http://www.w3.org/2000/svg" viewBox="0 0 576 512">
  <path
    d="M199 106a24 24 0 0 1-32-36 279 279 0 0 1 370 0 24 24 0 0 1-32 36 230 230 0 0 0-306 0M64 352q-15 1-16 16v80q1 15 16 16h448q15-1 16-16v-80q-1-15-16-16zM0 368c0-35 29-64 64-64h264v-56a24 24 0 1 1 48 0v56h136c35 0 64 29 64 64v80c0 35-29 64-64 64H64c-35 0-64-29-64-64zm104 16a24 24 0 1 1 0 48 24 24 0 1 1 0-48m56 24a24 24 0 1 1 48 0 24 24 0 1 1-48 0m192-248q-44 1-75 27c-11 8-26 6-34-4s-7-25 3-34a168 168 0 0 1 212 0 24 24 0 1 1-31 38q-31-26-75-27"
  />
</svg>
