<svg xmlns="http://www.w3.org/2000/svg" width="512" height="512"><path d="M256.611 118c-63.394.014-123.178 46.059-132.183 115.738 0 0-27.203 6.086-44.516 30.737-36.258 51.61 2.772 119.11 66.1 119.11 26.026 0 35.752 4.894 35.752-18.958 0-35.022-34.066-6.063-62.575-27.229-39.887-29.612 6.738-90.784 46.489-59.214-39.2-128.972 158.129-171.35 183.433-46.094 36.426-1.304 59.548 28.703 58.826 58.627-.778 32.264-27.787 55.46-58.007 54.947-12.519-.213-18.804 9.453-18.823 18.92-.022 9.494 6.248 19.124 18.823 19.002 38.097-.365 92.51-34.009 95.916-91.32 2.353-39.6-22.409-80.14-67.407-93.793 0 0-13.345-34.435-48.578-58.002-23.085-15.433-48.443-22.476-73.25-22.471Z" style="fill:#000;fill-rule:evenodd;stroke:none;stroke-width:18.9813"/></svg>