<svg xmlns="http://www.w3.org/2000/svg" width="512" height="512" fill="none"><path fill="url(#a)" d="M394.204 238.682c-.531-4.796-1.064-10.657-3.193-17.052-1.597-6.394-4.256-13.321-7.982-20.781-3.725-7.46-8.513-14.92-14.366-22.38-2.129-2.664-4.79-5.862-7.982-8.526 4.256-17.051-5.321-31.439-5.321-31.439-15.964-1.065-26.607 4.796-30.332 7.993-.532 0-1.065-.533-2.129-1.065-2.66-1.066-5.32-2.132-8.513-3.198-3.193-1.065-5.854-1.598-9.046-2.664-3.193-.533-6.387-1.066-9.046-1.598h-1.597C287.779 115.592 267.558 106 267.558 106c-22.348 14.387-26.605 34.103-26.605 34.103v1.066c-1.065.533-2.661.533-3.725 1.065-1.597.533-3.193 1.066-5.322 1.6-1.596.532-3.192 1.065-5.32 2.13-3.193 1.6-6.918 3.198-10.111 4.796-3.193 1.599-6.386 3.73-9.578 5.862-.532 0-.532-.533-.532-.533-31.396-11.723-59.066 2.664-59.066 2.664-2.66 33.037 12.239 54.352 15.432 58.082-.533 2.131-1.597 4.263-2.129 6.394-2.128 7.46-4.257 15.453-5.321 23.446 0 1.066-.532 2.132-.532 3.197-28.735 14.387-37.249 43.694-37.249 43.694 23.946 27.71 52.148 29.307 52.148 29.307 3.725 6.396 7.45 12.256 12.239 18.118 2.128 2.13 4.257 4.796 5.853 6.927-8.514 25.044 1.065 45.826 1.065 45.826 26.606 1.066 44.166-11.723 47.89-14.92 2.661 1.066 5.322 1.598 7.982 2.665 7.982 2.131 16.496 3.197 25.01 3.729h10.11C292.568 403.335 314.386 406 314.386 406c15.964-16.52 16.495-33.038 16.495-36.768v-1.066c3.193-2.13 6.385-4.794 9.58-7.46 6.384-5.86 11.705-12.255 16.494-19.182.533-.533 1.065-1.066 1.065-2.131 18.092 1.065 30.33-11.19 30.33-11.19-3.192-18.65-13.835-27.71-15.964-29.307h-.531v-22.382c-.533-2.13-.533-4.262-1.064-5.861-2.128-7.992-4.79-15.453-9.046-22.38-4.257-6.927-9.046-12.788-14.9-18.117-5.854-5.328-12.239-9.058-19.156-12.256-6.918-3.197-13.836-4.795-21.285-5.861-3.725-.533-6.918-.533-10.643-.533h-5.321c-1.597 0-3.725.533-5.32.533-6.918 1.066-13.836 3.73-19.69 7.46-5.853 3.73-11.174 7.993-15.431 12.789-4.257 4.795-7.45 10.657-9.579 16.519-2.128 5.861-3.192 11.722-3.724 17.583v8.526c.532 2.664 1.064 5.863 1.596 8.526 1.596 5.328 4.257 10.124 6.918 14.387 3.192 4.264 6.917 7.46 10.643 10.124 3.724 2.665 7.982 4.796 12.238 5.862 4.257 1.065 7.982 1.599 12.239 1.599h6.918c.531 0 1.064 0 1.595-.534 1.064 0 1.597-.532 2.661-.532 1.597-.533 3.193-1.065 4.79-2.131 1.595-.534 2.66-1.6 4.256-2.665.532 0 .533-.532 1.065-1.066 1.596-1.065 1.596-3.196.532-4.262-1.064-1.066-2.66-1.6-3.725-.534-.533 0-.533.534-1.064.534-1.064.532-2.128 1.066-3.725 1.598-1.065.533-2.661.533-3.726 1.065h-8.513c-3.192-.532-5.854-1.065-9.046-2.663-3.193-1.066-5.854-3.197-8.515-5.328-2.66-2.133-4.788-5.33-6.385-7.993-1.595-2.665-3.192-6.395-3.725-10.124-.532-1.6-.532-3.73-.532-5.33v-2.663c0-1.066 0-2.133.532-3.199 1.597-7.993 5.322-15.452 11.707-21.846 1.597-1.6 3.193-2.665 4.79-4.264 1.595-1.066 3.725-2.13 5.32-3.196 2.129-1.066 4.257-1.6 5.854-2.132 2.128-.533 4.257-1.066 6.385-1.066h6.386c2.129 0 4.788.533 6.917 1.066 4.79 1.066 9.046 2.664 13.304 5.328 8.513 4.796 15.431 12.257 20.22 20.782 2.129 4.263 3.726 9.059 4.79 13.855 0 1.065.531 2.665.531 3.73v8.526c0 1.6 0 2.665-.531 4.263 0 1.065-.533 2.665-.533 3.73 0 1.066-.533 2.665-1.064 3.73-.533 2.664-1.597 5.329-2.661 7.46-2.128 4.796-4.788 9.592-7.982 14.387-6.385 8.526-14.898 15.986-25.009 20.248-4.79 2.133-10.11 3.73-15.432 4.797-2.66.533-5.321.533-7.982 1.065h-3.724c.531 0 0 0 0 0h-4.258c-5.852-.532-11.706-1.598-17.028-3.197-5.32-1.598-11.174-3.73-15.963-6.394-10.11-5.33-19.157-12.789-26.606-21.847-3.725-4.263-6.918-9.059-9.046-14.387-2.661-5.328-4.79-10.658-6.386-15.986-1.596-5.328-2.66-11.19-2.66-16.518v-10.127c0-2.663.532-5.86.532-8.525.532-2.665 1.064-5.862 1.596-8.525.532-2.665 1.064-5.862 2.128-8.526 1.597-5.329 3.725-10.658 5.854-15.986 4.789-10.124 10.642-19.183 18.092-26.11 1.596-1.599 3.725-3.73 5.853-5.329 2.129-1.598 4.257-3.197 6.386-4.263 2.128-1.598 4.257-2.664 6.385-3.73l3.193-1.598c.532 0 1.064-.533 1.596-.533s1.065-.533 1.597-.533c2.128-1.066 4.789-1.599 6.917-2.664.532 0 1.065-.533 1.597-.533s1.065-.533 1.596-.533c1.064-.533 2.661-.533 3.725-1.066.532 0 1.064-.533 2.129-.533.531 0 1.064 0 2.128-.532.533 0 1.064 0 2.128-.533h2.129c.532 0 1.064 0 2.128-.533.533 0 1.597 0 2.13-.533h9.044s.533 0 0 0h9.58c4.789 0 9.577.533 14.366 1.599 9.046 1.598 17.561 4.795 25.543 8.525a83.052 83.052 0 0 1 20.752 13.855c.533.532.533.532 1.064 1.065l1.064 1.066c.533.533 1.597 1.066 2.129 2.131.532 1.066 1.597 1.066 2.13 2.132.53 1.066 1.595 1.599 2.128 2.131 2.66 2.665 4.788 5.329 6.917 8.526 4.257 5.329 7.982 11.19 10.642 16.519 0 .533.533.533.533 1.065 0 .533.531.533.531 1.066.533.533.533 1.066 1.064 2.132.533.533.533 1.065 1.065 2.131.532.533.532 1.066 1.064 2.132 1.065 2.664 2.13 4.795 2.66 6.926 1.065 3.73 2.13 6.927 2.662 9.592.531 1.066 1.595 2.131 2.66 1.6 1.064 0 2.13-1.066 2.13-2.133 2.128-6.394 2.128-10.125 1.595-13.854z" style="fill:url(#a);stroke-width:13.6003"/><defs><linearGradient id="a" x1="10.254" x2="10.254" y1="28" y2="2.5" gradientTransform="matrix(13.5909 0 0 13.6097 117.5 106)" gradientUnits="userSpaceOnUse"><stop stop-color="#FFF100"/><stop offset="1" stop-color="#F05A28"/></linearGradient></defs></svg>