<svg xmlns="http://www.w3.org/2000/svg" width="512" height="512"><path d="m335.97 366.409-68.858-38.114c25.592-20.117 32.548-59.652 32.548-81.824v-46.145c0-30.553-40.63-64.58-81.447-64.58-40.794 0-82.507 34.027-82.507 64.58v46.145c0 20.161 8.53 60.93 34.385 81.649l-70.63 38.278S81 374.615 81 384.854v27.69C81 422.739 89.28 431 99.461 431H335.97c10.182 0 18.461-8.272 18.461-18.456v-27.69c0-10.861-18.472-18.456-18.472-18.456zm-3.412 42.758H102.874V389.63c1.564-1.147 3.762-2.47 5.49-3.256.514-.23 1.028-.48 1.52-.765l70.641-38.278a21.865 21.865 0 0 0 11.363-17.254 21.86 21.86 0 0 0-8.104-19.003c-18.34-14.697-26.204-47.227-26.204-64.59v-46.146c0-15.703 29.616-42.726 60.633-42.726 31.597 0 59.573 26.662 59.573 42.726v46.145c0 17.112-5.315 49.796-24.192 64.635a21.882 21.882 0 0 0-8.28 19.003 21.897 21.897 0 0 0 11.32 17.363l68.859 38.114c.601.328 1.378.689 2.012.973 1.619.688 3.598 1.825 5.053 2.83zm79.959-97.165-69.886-38.114c25.592-20.117 33.576-59.652 33.576-81.823v-46.146c0-30.553-41.648-64.919-82.464-64.919-26.522 0-53.634 14.413-69.416 32.858 9.001.558 18.92.568 27.495 3.3 11.528-8.971 26.095-14.293 41.92-14.293 31.597 0 60.59 26.99 60.59 43.065v46.146c0 17.112-6.342 49.795-25.208 64.634a21.855 21.855 0 0 0-8.28 19.003 21.855 21.855 0 0 0 11.32 17.363l69.886 38.114a30.88 30.88 0 0 0 2.013.973c1.618.688 3.598 1.825 5.052 2.83v19.44h-44.151c6.671 5.026 8.683 12.216 11.275 21.854h36.3c10.182 0 18.461-8.272 18.461-18.456v-27.35c-.01-10.873-18.472-18.479-18.472-18.479z" style="stroke-width:10.932"/></svg>