<svg xmlns="http://www.w3.org/2000/svg" width="512" height="512"><path d="m394.847 299.073-15.573 58.22-.438.12L361.82 421l-110.01-29.501-1.314.343-115.83-31.065-.201-.758-30.828-8.282 5.834-21.812.38.107 57.145-213.523-.379-.107 6.024-22.476 202.42 54.311.188-.663L431 162.526l-36.354 135.777Zm7.68-120.102-213.282-57.214-42.105 157.34L360.399 336.3zm-191.094 46.136 14.13 24.229 36.768-34.656 18.733 32.772 49.525-43.707 12.39 101.406-163.568-43.908zm10.568-23.838c-9.29-2.5-14.816-12.073-12.319-21.374 2.497-9.3 12.047-14.846 21.348-12.346 9.29 2.5 14.816 12.073 12.32 21.374-2.497 9.3-12.047 14.845-21.349 12.346zm100.742-81.763-4.899 1.315-44.91-12.05L339.181 91l10.248 38.28-25.916-6.954zm-213.282 57.226 14.697 54.915-12.035 44.95L81 160.276l67.075-17.997-6.947 25.947zm40.72 242.017-12.047-44.998 89.902 24.122z" style="stroke-width:11.8409"/></svg>