<svg xmlns="http://www.w3.org/2000/svg" width="512" height="512"><path d="m318.878 82.963-72.155 72.263M131.925 82.963l72.155 72.264M360.362 379.68h34.787m-34.787-23.226h34.787m0-47.615a17.394 17.42 0 0 1-17.394 17.42 17.394 17.42 0 0 1-17.393-17.42 17.394 17.42 0 0 1 17.393-17.42 17.394 17.42 0 0 1 17.394 17.42zM191.064 185.16a34.787 34.843 0 0 1 34.786-34.844 34.787 34.843 0 0 1 34.787 34.844H225.85zm204.085 66.776a17.394 17.42 0 0 1-17.394 17.42 17.394 17.42 0 0 1-17.393-17.42 17.394 17.42 0 0 1 17.393-17.42 17.394 17.42 0 0 1 17.394 17.42zm-266.702-30.194h194.808a6.947 6.947 0 0 1 6.958 6.968v160.263a6.947 6.947 0 0 1-6.958 6.968H128.447a6.947 6.947 0 0 1-6.958-6.968V228.709a6.947 6.947 0 0 1 6.958-6.968zm-20.293-36.582h295.692c12.848 0 23.191 10.36 23.191 23.227V405.81c0 12.867-10.343 23.226-23.191 23.226H108.154c-12.848 0-23.191-10.359-23.191-23.226V208.386c0-12.868 10.343-23.227 23.191-23.227z" style="fill:none;stroke:#000;stroke-width:13.9254;stroke-linecap:round;stroke-linejoin:round;stroke-dasharray:none;stroke-opacity:1"/></svg>